<?xml version="1.0" encoding="utf-8"?>
<!-- Generator: Adobe Illustrator 18.0.0, SVG Export Plug-In . SVG Version: 6.00 Build 0)  -->
<!DOCTYPE svg PUBLIC "-//W3C//DTD SVG 1.1//EN" "http://www.w3.org/Graphics/SVG/1.1/DTD/svg11.dtd">
<svg version="1.1" id="Livello_1" xmlns="http://www.w3.org/2000/svg" xmlns:xlink="http://www.w3.org/1999/xlink" x="0px" y="0px"
	 viewBox="0 0 160.7 83" enable-background="new 0 0 160.7 83" xml:space="preserve">
<metadata><?xpacket begin="﻿" id="W5M0MpCehiHzreSzNTczkc9d"?>
<x:xmpmeta xmlns:x="adobe:ns:meta/" x:xmptk="Adobe XMP Core 5.6-c011 79.156289, 2014/03/31-23:39:12        ">
   <rdf:RDF xmlns:rdf="http://www.w3.org/1999/02/22-rdf-syntax-ns#">
      <rdf:Description rdf:about=""
            xmlns:dc="http://purl.org/dc/elements/1.1/"
            xmlns:xmp="http://ns.adobe.com/xap/1.0/"
            xmlns:xmpGImg="http://ns.adobe.com/xap/1.0/g/img/"
            xmlns:xmpMM="http://ns.adobe.com/xap/1.0/mm/"
            xmlns:stRef="http://ns.adobe.com/xap/1.0/sType/ResourceRef#"
            xmlns:stEvt="http://ns.adobe.com/xap/1.0/sType/ResourceEvent#"
            xmlns:illustrator="http://ns.adobe.com/illustrator/1.0/"
            xmlns:xmpTPg="http://ns.adobe.com/xap/1.0/t/pg/"
            xmlns:stDim="http://ns.adobe.com/xap/1.0/sType/Dimensions#"
            xmlns:xmpG="http://ns.adobe.com/xap/1.0/g/"
            xmlns:pdf="http://ns.adobe.com/pdf/1.3/">
         <dc:format>image/svg+xml</dc:format>
         <dc:title>
            <rdf:Alt>
               <rdf:li xml:lang="x-default">Stampa</rdf:li>
            </rdf:Alt>
         </dc:title>
         <xmp:MetadataDate>2017-02-23T15:50:53+01:00</xmp:MetadataDate>
         <xmp:ModifyDate>2017-02-23T15:50:53+01:00</xmp:ModifyDate>
         <xmp:CreateDate>2017-02-23T15:50:53+01:00</xmp:CreateDate>
         <xmp:CreatorTool>Adobe Illustrator CC 2014 (Windows)</xmp:CreatorTool>
         <xmp:Thumbnails>
            <rdf:Alt>
               <rdf:li rdf:parseType="Resource">
                  <xmpGImg:width>256</xmpGImg:width>
                  <xmpGImg:height>128</xmpGImg:height>
                  <xmpGImg:format>JPEG</xmpGImg:format>
                  <xmpGImg:image>/9j/4AAQSkZJRgABAgEASABIAAD/7QAsUGhvdG9zaG9wIDMuMAA4QklNA+0AAAAAABAASAAAAAEA&#xA;AQBIAAAAAQAB/+4ADkFkb2JlAGTAAAAAAf/bAIQABgQEBAUEBgUFBgkGBQYJCwgGBggLDAoKCwoK&#xA;DBAMDAwMDAwQDA4PEA8ODBMTFBQTExwbGxscHx8fHx8fHx8fHwEHBwcNDA0YEBAYGhURFRofHx8f&#xA;Hx8fHx8fHx8fHx8fHx8fHx8fHx8fHx8fHx8fHx8fHx8fHx8fHx8fHx8fHx8f/8AAEQgAgAEAAwER&#xA;AAIRAQMRAf/EAaIAAAAHAQEBAQEAAAAAAAAAAAQFAwIGAQAHCAkKCwEAAgIDAQEBAQEAAAAAAAAA&#xA;AQACAwQFBgcICQoLEAACAQMDAgQCBgcDBAIGAnMBAgMRBAAFIRIxQVEGE2EicYEUMpGhBxWxQiPB&#xA;UtHhMxZi8CRygvElQzRTkqKyY3PCNUQnk6OzNhdUZHTD0uIIJoMJChgZhJRFRqS0VtNVKBry4/PE&#xA;1OT0ZXWFlaW1xdXl9WZ2hpamtsbW5vY3R1dnd4eXp7fH1+f3OEhYaHiImKi4yNjo+Ck5SVlpeYmZ&#xA;qbnJ2en5KjpKWmp6ipqqusra6voRAAICAQIDBQUEBQYECAMDbQEAAhEDBCESMUEFURNhIgZxgZEy&#xA;obHwFMHR4SNCFVJicvEzJDRDghaSUyWiY7LCB3PSNeJEgxdUkwgJChgZJjZFGidkdFU38qOzwygp&#xA;0+PzhJSktMTU5PRldYWVpbXF1eX1RlZmdoaWprbG1ub2R1dnd4eXp7fH1+f3OEhYaHiImKi4yNjo&#xA;+DlJWWl5iZmpucnZ6fkqOkpaanqKmqq6ytrq+v/aAAwDAQACEQMRAD8A9U4q7FXYq7FXYq7FXYq7&#xA;FXYq7FXYq7FXYq7FXYq7FXYq7FXYq7FXYq7FXYq7FXYq7FXYq7FXYq7FXYq7FXYq7FXYq7FXYq7F&#xA;XYq7FXYq7FXYq7FXYq7FXYq7FXYq7FXYq7FXYq7FXYq7FXYq7FXYq7FXYq7FXYq7FXYq7FXYq7FX&#xA;Yq7FXYq7FXYq7FXYq7FXYq7FXYq7FXYq7FXYq7FXYq7FXYq7FXYq7FXYq7FXYq7FXYq7FXYq7FXY&#xA;q7FXYq7FXYq7FXYq7FXYq7FXYq7FXYq7FXYq7FXYq7FXYq7FXYq7FXYq7FXYq7FXYq7FXYq7FXYq&#xA;7FXYq7FXYq7FXYq7FXYq7FXYq7FXYq7FXYq7FXYq7FXYq7FXYq7FXYq7FXYq7FXYq7FXYq7FXYq7&#xA;FXYq7FXYq7FXYq7FXYq7FXYq7FXYq7FXYq7FXYq7FXYq7FXYq7FXYq7FXYq7FXYq7FXYq7FXYq7F&#xA;XYq7FXYq7FXYq7FXYq7FXYq7FXYq7FXYq7FXYq7FXYq7FXYq7FXYq7FXYq7FXYq7FXYq7FXYq7FX&#xA;Yq7FXYq7FXYq7FXYq7FXYq7FXYq7FXYq7FXYq7FXYq7FXYq7FXYq7FXYq7FXYq7FXYq7FXYq7FXY&#xA;q7FXYq7FXYq7FXYq7FXYq7FXYq7FXYq7FXYq7FXYq7FXYq7FXYq7FXYq7FXYq7FXYq7FXYq7FXYq&#xA;7FXYq7FXYq7FXYq7FXYq7FXYq7FXYq7FXYq7FXYq7FXYq7FXYq7FXYq7FXYq7FXYq7FXYq7FXYq7&#xA;FXYq7FXYq7FXYq7FXYq7FXYq7FXYq7FXYq7FXYq7FXYq7FXd8VdirsVdirsVdirsVdirsVdirsVd&#xA;irsVdirsVdirsVdirsVdirsVdirsVdirsVdirsVdirsVdirsVdirsVdirsVdirsVdirsVdirsVdi&#xA;rsVdirsVdirsVdirsVdirsVdirsVdirsVdirsVdirsVdirsVdirsVdirsVdirsVdirsVdirsVdir&#xA;sVdirsVdirsVdirsVdirsVdirsVdirsVdirsVdirsVdirsVdirsVdirsVdirsVdirsVdirsVdirs&#xA;VdirsVdirsVdirsVdirsVdirsVdirsVdirsVdirsVdirsVdirsVdirsVdirsVdirsVdirsVdirsV&#xA;dirsVdirsVdirsVdirsVdirsVdirsVdirsVdirsVdirsVdirsVdirsVdirsVdirsVdirsVdirsVd&#xA;irsVdirsVdirsVdirsVdirsVdirsVdirsVdirsVdirsVdir/AP/Z</xmpGImg:image>
               </rdf:li>
            </rdf:Alt>
         </xmp:Thumbnails>
         <xmpMM:InstanceID>xmp.iid:345e2949-99f5-3042-a2a5-00961d9c4935</xmpMM:InstanceID>
         <xmpMM:DocumentID>xmp.did:345e2949-99f5-3042-a2a5-00961d9c4935</xmpMM:DocumentID>
         <xmpMM:OriginalDocumentID>uuid:5D20892493BFDB11914A8590D31508C8</xmpMM:OriginalDocumentID>
         <xmpMM:RenditionClass>proof:pdf</xmpMM:RenditionClass>
         <xmpMM:DerivedFrom rdf:parseType="Resource">
            <stRef:instanceID>uuid:122a586e-3ff0-47ac-9305-c2e8012b4a7a</stRef:instanceID>
            <stRef:documentID>xmp.did:bbffabc7-60ed-8845-83b9-a23281aac743</stRef:documentID>
            <stRef:originalDocumentID>uuid:5D20892493BFDB11914A8590D31508C8</stRef:originalDocumentID>
            <stRef:renditionClass>proof:pdf</stRef:renditionClass>
         </xmpMM:DerivedFrom>
         <xmpMM:History>
            <rdf:Seq>
               <rdf:li rdf:parseType="Resource">
                  <stEvt:action>saved</stEvt:action>
                  <stEvt:instanceID>xmp.iid:345e2949-99f5-3042-a2a5-00961d9c4935</stEvt:instanceID>
                  <stEvt:when>2017-02-23T15:50:53+01:00</stEvt:when>
                  <stEvt:softwareAgent>Adobe Illustrator CC 2014 (Windows)</stEvt:softwareAgent>
                  <stEvt:changed>/</stEvt:changed>
               </rdf:li>
            </rdf:Seq>
         </xmpMM:History>
         <illustrator:StartupProfile>Print</illustrator:StartupProfile>
         <xmpTPg:HasVisibleOverprint>False</xmpTPg:HasVisibleOverprint>
         <xmpTPg:HasVisibleTransparency>False</xmpTPg:HasVisibleTransparency>
         <xmpTPg:NPages>1</xmpTPg:NPages>
         <xmpTPg:MaxPageSize rdf:parseType="Resource">
            <stDim:w>160.666667</stDim:w>
            <stDim:h>83.000000</stDim:h>
            <stDim:unit>Pixels</stDim:unit>
         </xmpTPg:MaxPageSize>
         <xmpTPg:PlateNames>
            <rdf:Seq>
               <rdf:li>Cyan</rdf:li>
               <rdf:li>Magenta</rdf:li>
               <rdf:li>Yellow</rdf:li>
               <rdf:li>Black</rdf:li>
            </rdf:Seq>
         </xmpTPg:PlateNames>
         <xmpTPg:SwatchGroups>
            <rdf:Seq>
               <rdf:li rdf:parseType="Resource">
                  <xmpG:groupName>Gruppo campioni predefinito</xmpG:groupName>
                  <xmpG:groupType>0</xmpG:groupType>
               </rdf:li>
            </rdf:Seq>
         </xmpTPg:SwatchGroups>
         <pdf:Producer>Adobe PDF library 10.01</pdf:Producer>
      </rdf:Description>
   </rdf:RDF>
</x:xmpmeta>
                                                                                                    
                                                                                                    
                                                                                                    
                                                                                                    
                                                                                                    
                                                                                                    
                                                                                                    
                                                                                                    
                                                                                                    
                                                                                                    
                                                                                                    
                                                                                                    
                                                                                                    
                                                                                                    
                                                                                                    
                                                                                                    
                                                                                                    
                                                                                                    
                                                                                                    
                                                                                                    
                           
<?xpacket end="w"?>
	</metadata>
<g>
	<path fill="#FFFFFF" d="M118.5,45.6c1.1-1.1,1.6-2.5,1.7-3.9l12.2-16.7c0.3-0.4,0.3-1-0.1-1.3c-0.4-0.4-0.9-0.4-1.3-0.1l-16.6,12.3
		c-1.5,0-2.9,0.6-3.9,1.7c-1.1,1.1-1.6,2.5-1.7,3.9L96.5,58.2c-0.3,0.4-0.3,1,0.1,1.3c0.2,0.2,0.4,0.3,0.7,0.3
		c0.2,0,0.4-0.1,0.6-0.2l16.7-12.3C116.1,47.3,117.4,46.7,118.5,45.6L118.5,45.6z M114.3,45.2c-0.3,0-0.4,0.1-0.6,0.2l-11.6,8.5
		l8.5-11.6c0.2-0.2,0.2-0.4,0.2-0.6c-0.1-1.1,0.4-2.1,1.1-2.8c0.7-0.7,1.6-1.1,2.6-1.1c0.1,0,0.1,0,0.2,0c0.3,0,0.4-0.1,0.6-0.2
		l11.6-8.5l-8.5,11.6c-0.2,0.2-0.2,0.4-0.2,0.6c0.1,1.1-0.4,2.1-1.1,2.8C116.3,45,115.4,45.3,114.3,45.2L114.3,45.2z"/>
	<path fill="#FFFFFF" d="M141.5,40.5h-4.8c-0.2-3.9-1.3-7.6-3.4-10.9c-0.3-0.4-0.9-0.6-1.4-0.3c-0.4,0.3-0.6,0.9-0.3,1.4
		c2,3.1,3.1,6.9,3.1,10.8c0,11.1-9.1,20.2-20.2,20.2c-3.9,0-7.6-1.1-10.9-3.1c-0.4-0.3-1.1-0.2-1.4,0.3c-0.3,0.4-0.2,1.1,0.3,1.4
		c3.3,2.1,7,3.2,11,3.4v4.8c0,0.5,0.4,1,1,1c0.5,0,1-0.4,1-1v-4.8c5.4-0.3,10.3-2.4,14-5.8l1.4,1.4c0.2,0.2,0.4,0.3,0.7,0.3
		c0.3,0,0.5-0.1,0.7-0.3c0.4-0.4,0.4-1.1,0-1.4l-1.4-1.4c3.4-3.8,5.6-8.6,5.7-14h4.8c0.5,0,1-0.4,1-1
		C142.5,40.9,142,40.5,141.5,40.5L141.5,40.5z"/>
	<path fill="#FFFFFF" d="M114.5,40.5c-0.6,0-1.1,0.4-1.1,1.1c0,0.6,0.4,1.1,1.1,1.1s1.1-0.4,1.1-1.1
		C115.5,40.9,115.1,40.5,114.5,40.5L114.5,40.5z"/>
	<path fill="#FFFFFF" d="M136.6,19.4c-5.9-5.9-13.8-9.2-22.2-9.2s-16.2,3.2-22.2,9.2c-5.9,6-9.2,13.9-9.2,22.3s3.2,16.2,9.2,22.2
		c5.9,5.9,13.8,9.2,22.2,9.2s16.2-3.2,22.2-9.2c5.9-5.9,9.2-13.8,9.2-22.2S142.6,25.3,136.6,19.4L136.6,19.4z M114.5,70.9
		c-16.2,0-29.4-13.2-29.4-29.4s13.2-29.4,29.4-29.4s29.4,13.2,29.4,29.4S130.6,70.9,114.5,70.9L114.5,70.9z"/>
	<path fill="#FFFFFF" d="M97,53.8c0.4-0.3,0.6-0.9,0.3-1.4c-2-3.1-3.1-6.9-3.1-10.8c0-11.1,9.1-20.2,20.2-20.2
		c3.9,0,7.6,1.1,10.9,3.1c0.4,0.3,1.1,0.2,1.4-0.3c0.3-0.4,0.2-1.1-0.3-1.4c-3.3-2.1-7-3.2-11-3.4v-4.8c0-0.5-0.4-1-1-1s-1,0.4-1,1
		v4.8c-5.4,0.3-10.2,2.3-13.9,5.7l-1.4-1.4c-0.4-0.4-1.1-0.4-1.4,0s-0.4,1.1,0,1.4l1.4,1.4c-3.4,3.7-5.6,8.6-5.8,14h-4.9
		c-0.5,0-1,0.4-1,1c0,0.5,0.4,1,1,1h4.8c0.2,3.9,1.3,7.7,3.4,11c0.2,0.3,0.5,0.4,0.9,0.4C96.7,53.9,96.9,53.9,97,53.8L97,53.8z"/>
</g>
<g>
	<path fill="#0066CC" d="M53.9,53.9c0.3,0,0.8,0.2,0.7,0.5c-0.1,0.3-0.3,0.8-0.5,0.8c-0.3,0-0.8-0.3-0.8-0.7S53.6,53.9,53.9,53.9
		L53.9,53.9z"/>
	<path fill="#0066CC" d="M24.3,63.1c0.4,0.2,0.7,0.2,1.1,0l-0.3-0.4l-0.6-0.6c-0.3-0.2-0.6,0-0.8,0.5L24.3,63.1L24.3,63.1z"/>
	<path fill="#6F7072" d="M43.5,76.1c-0.1,0.2,0,0.4,0.2,0.6c0.2,0.2,0.4,0.2,0.6,0.1L43.5,76.1L43.5,76.1z"/>
	<path fill="#FFFFFF" d="M69.4,39.1c0.2-1.4,0.1-2.4-0.4-2.7c-0.5-0.4-1.2-0.3-2,0.4c-0.5-0.2-1.1,0-1.8,0.7c0.1-0.3,0.1-0.7,0-0.9
		c0.7-0.3,1.1-0.7,1.3-1.1c0.2-0.4,0.3-1,0.3-1.8c0.1-0.5,0.5-1.4,1.4-2.7c0.6-1.3,0.2-1.8-1.2-1.4c0.8-0.7,1.2-1.3,1.2-1.8
		c0.1-0.5-0.1-1.1-0.6-1.8c-0.2-0.4-0.5-0.5-0.8-0.2c0.1-0.3,0.2-0.6,0.2-1c0-0.4-0.2-1.2-0.7-2.4c-0.1-1.6-0.5-2.2-1.1-2
		c-0.1-0.8-0.4-1.6-0.8-2.4c-0.6-1-1.1-1.2-1.5-0.8c-1-1.6-2-2.2-2.9-1.9c0-0.7-0.3-1.3-0.7-1.8c-0.2-1-0.5-1.7-0.9-2.1
		c-0.5-0.2-0.8,0.1-1,0.8c-0.1-0.6-0.3-1.2-0.6-1.8c-0.3-0.6-0.8-1-1.4-1c-0.2,0-0.5,0-0.7,0.1C54.2,9.1,53.8,9,53.6,9
		c-0.9-1-1.7-1-2.5-0.2l-0.1-0.8c-0.3-1-0.8-1.2-1.6-0.6C48,5.9,46.9,5,46,4.6c-0.8-0.3-1.3-0.2-1.5,0.2C44,4.4,43.6,4.1,43.2,4
		c-0.5-0.1-0.9-0.2-1.3-0.4c-0.6,0-0.9,0.3-0.8,1c-1,0.1-1.6,0.2-2,0.5c-0.4,0.3-0.5,0.7-0.3,1.2C39,6.8,39.4,7.3,40,7.6
		c-0.2,0.2-0.2,0.5-0.2,0.9c0,0.4,0.5,0.7,1.3,1c0.6,0.2,1.2,0.2,1.8,0c-0.1,0.6,0.1,1,0.6,1.2c0.8,0.8,1.7,1,2.9,0.6L46.3,12
		l1.6,0.6c0.1,0.7,0.4,1.3,1,1.6l0.6,0.3c-0.1,0-0.7,0.5-0.7,0.6c-0.1,0.1-0.5,0.9,0.4,1.1c0.6,0.1,1.3,0.1,2,0.1
		c0,0.2,0.1,0.5,0.3,0.7c0.1,0.2,0.4,0.6,0.9,1.1c0.4,0.5,1.3,0.9,1.9,1.2c0,0-0.2,0.6-0.4,1.1c-0.2,0.6-0.3,1.5,0.1,2
		c-0.1,0-0.5,0.2-0.6,0.4c-0.5,0.8,0.6,1.9,0.8,2.3c-0.1,0-0.4,0.1-0.5,0.3c-0.4,0.3-0.2,1.6,0.8,1.8c0.3,0.1,1.5,0.8,2.1,1.5
		c0.1,0.1,0.5,0.8,0.9,1.4c0.3,0.3,0.5,0.9,1.2,0.9c0.6,1.9,1.5,3.7,2.7,5.4c0,0.1,1,1.2,1.4,2.2c-0.1,0.7-0.1,1.2-0.1,1.2
		c-0.1,1.3-0.4,2.5-0.7,3.6c-1.1-0.5-1.3,0.2-1.5,0.9c0,0-0.5-0.1-0.6,0.1c0-0.4-0.7-0.8-1-0.6c0,0-0.4,0.3-0.6,0.4
		C58,44.4,58,43.9,58,43.6c0-0.2-0.1-1,0.1-1.3c0,0,0.3-0.4,0.5-0.7c0.3-0.6,0.1-2.5-0.3-3.8c-0.1-0.4-0.4-0.6-0.6-0.7
		c-0.1,0-0.7,0-0.8,0.5c0-0.3-0.5-0.4-0.8-0.5c-0.9-0.2-1.8,1.5-1.7,3c-0.6-0.5-1.5-0.3-1.4,0.5c0.1,1.2,2,3.4,2,4.4
		c-0.6-0.5-1.8-0.5-1.8,0.7c0,0.4,0.3,1,0.4,1.2c-0.3,1.3,1.2,2.2,2.4,3.4c0,0.6,0.2,0.6,0.4,0.8c-0.2,0.3-1.6,2.5-1.6,2.5
		c-0.1,0-1-0.5-1.3-0.2c-0.3,0.3-0.6,0.7-0.7,0.9l0.2,1.5c0.1,0.6-0.2,1.3-1,2.1c-0.8,0.8-1.3,1.5-1.5,2.1c-0.1,0.5-0.7,1-1.6,1.6
		c-0.1-0.2-0.3-0.4-0.6-0.8c-0.1-0.1-0.2-0.1-0.3-0.1c-0.9,0.2-2.7,1.3-5.5,2.7c-0.5,0.2-1.2,0.8-2,2.4h-1.6
		c-0.4-0.5-0.9-0.8-1.4-1.2c-0.3-0.3-1-0.3-1.8,0.2c-0.8-0.2-1.7-0.1-2.5,0.5c-0.5,0.2-0.9,0.2-1.1,0.1l-2-2.1
		c-4.1-1.7-6.3-2.5-6.7-2.3c-0.4,0.2-0.7,0.6-0.9,1c-0.4-0.2-1-0.7-1.8-1.5L19.4,59c-0.9-1-1.3-2-1.1-2.9l0.2-1.2
		c0-0.2,0-0.3-0.1-0.4c-0.3-0.3-0.8-0.5-1.1-0.6c-0.1,0-0.2-0.1-0.4,0.6c0.1,0.2-1.3-1.8-1.3-1.8c0.4-0.4,1-1.5,1.4-2.9
		c0.4-1.5,0.6-3.2,0.6-3.8c0.1-0.1,0.1-0.2,0.2-0.2c0.6-0.5,1.4-4.9,1.2-6c-0.1-0.4-0.2-0.6-0.3-0.7c-0.1,0-0.2,0-0.3,0.1l0.2-0.5
		c0.1-0.3,0.1-0.6,0-0.7c-0.1-0.1-0.8-0.1-1.4,0.2c-0.1-0.7-0.4-1.7-0.6-2.1c-0.1-0.1-0.2,0-0.2,0c-1.1,0.7-1.6,2.2-2,4l-0.3,0.3
		c-1.4,1.8-2.6,3.9-3.1,6.3c-0.2-0.4-0.4-0.9-0.6-1.6C10,44.4,9.9,44,10,43.7c0.2-0.4,0.1-0.7-0.2-1c-0.3-0.3-0.6-1.5-1-3.6
		c0-0.6,0.3-1.4,0.7-2.5c0.4-1.1,1.1-2.5,2.1-4.2c0.1-0.1,0.5-0.5,0.6-0.6c1.4-0.3,7.6-8.3,6.9-12.1c-0.1,0.4,2.7-4.4,2.9-5.4
		l0.3-0.1l0.4-0.2c1.3-0.5,2.5-1.1,3.5-1.6l1.6-0.9c1.1-0.5,2.2-1.1,3.2-2c1.1-0.9,1.6-1.9,1.7-2.9c-0.2-0.2-0.7-0.4-1.6-0.4
		c0.5-0.5,0.7-1.1,0.8-1.7c-0.3-0.5-1.4-0.6-3.1-0.2c-1.8,0.5-3.4,1.2-4.8,2.1c-1.4,0.9-2.6,2-3.8,3.2c-1.1,1.3-2,2.6-2.7,4l0.8-1.8
		c0.4-0.9,0.8-1.9,1.3-3.1c0.1-0.6,0.1-1,0-1.2c-0.1-0.2-0.4-0.3-0.8-0.2c-0.4,0.1-1.2,0.7-2.3,1.7c-1.2,1.3-2.3,2.8-3.3,4.7
		c-0.9,1.8-1.6,3.3-1.9,4.4c0.2-1.2,0.2-2.2-0.1-3.1c-0.1-0.3-0.4-0.4-0.9-0.3c-0.4,0.3-0.9,0.7-1.3,1.3c-0.4,0.6-0.8,1.2-1.2,1.7
		c-0.4,0.5-0.9,1.3-1.4,2.3c-0.5,1-1,2.2-1.4,3.6C4.5,25.1,4.2,27,4,29.3c-0.1,1.5,0,3,0.3,4.7c0.4,1.7,0.9,2.9,1.3,3.7
		C6,38.6,6.4,39,6.8,39.2c0.2,0.6,0.6,1.6,1,2.9c0.2,0.6,0.3,1.1,0.3,1.5c0,0.3,0.1,0.6,0.3,0.7c0.2,0.1,0.4,0.4,0.5,0.8
		c0.3,1.3,0.8,2.5,1.4,3.6c-0.1,0.6-0.2,1.2-0.2,1.8c-1.3-3.7-2.3-6.5-3.1-8.4c-1.6-3.4-2.8-5-3.7-4.7c-0.4,0.2-0.7,0.5-0.8,1.2
		c0,0.2,0,0.9,0,1.8c0,1,0.1,2,0.3,3.1c0.8,3.6,2.2,6.5,4.1,8.9l2.9,3.5c0.6,0.6,1.1,1,1.7,1.3c0.5,0.3,1,0.4,1.5,0.2
		c0.7,1.1,1.5,2.2,2.5,3.4c0.6,1,1.3,1.5,2,1.4c0.3,0.6,0.7,1,1.3,1l0.6-0.1c0.8,0.8,1.6,1.4,2.2,1.9L20.9,67
		c-1.3,0.2-2.6,0.3-3.7,0.3c-1-0.7-2.5-1.8-4.4-3l-0.1-2.4c-0.1-0.8,0.1-1.5,0.4-2.1c0.1-0.5-0.2-0.9-0.8-1.2
		c-0.9-0.4-1.3-0.6-1.6-0.5c-0.2,0.1,0,0.2,0,0.4v0.1c0-0.1,0.1-0.2,0.2-0.1c1.1,0.3,1.6,0.7,1.5,1.1c-0.3,0.6-0.5,1.3-0.5,2l0,2.1
		c-1.4-0.9-2.9-1.8-4.6-2.5c0.2,0,0.4,0,0.6-0.1c0.2,0,0.4-0.1,0.5-0.3c0.1-0.2-0.1-0.3-0.4-0.3c-0.8,0-1.4,0.1-1.6,0.2
		c-0.2,0.2-0.1,0.4,0.1,0.7c1.9,1,3.6,1.9,5.1,2.9c2.3,1.5,4.1,2.7,5.4,3.6c1.3,0,3-0.2,5.3-0.5l3.5-0.6c1.4-0.3,2.9-0.5,4.4-0.7
		c0.6-0.1,1.3-0.1,2.1-0.2c0.9,0,1.6-0.1,2.4-0.2c0.7,1.3,1.1,2.5,1.3,3.5c0.1,0.5,0,0.8-0.2,0.8c-3.2,1.2-5.5,1.9-6.9,2.2
		c-1.4,0.3-2.6,0.6-3.8,0.8c-2.8,0.5-5.6,0.9-8.3,1.2c-0.7-0.2-2.7-1.2-6-3.1c-2.4-1.4-4-2.6-4.9-3.4c-1.1-1.2-1.5-1.8-1.3-2.1
		c0.7-1.1,1.2-2.2,1.4-3c0.1-0.4,0.1-0.7,0.1-0.9c-0.3-0.9-0.1-1.4,0.6-1.4c1.8-0.1,3-0.1,3.6-0.1c0.3,0,0.4-0.1,0.5-0.2l0.6-1.2
		l-0.4-0.2l-0.5,0.8l0-0.8v1.1l-4.1,0.1c-0.3,0-0.8,0.1-1,0.4c-0.2,0.3-0.3,0.8-0.1,1.6c0,0.3,0,0.5-0.1,0.8
		c-0.2,0.9-0.7,1.9-1.5,3.1c-0.1,0.2-0.1,0.5,0.1,0.8c0.2,0.4,0.7,1,1.5,1.8c0.3,0.3,0.9,0.8,1.6,1.3s2,1.3,3.8,2.3
		c2.1,1.3,4.1,2.3,6.1,3.1c0.4,0,3.1-0.3,8-1.1l0,0.4c-1.4,1.1-2.3,1.5-2.7,1.3c-0.6,0.1-0.7,0.5-0.5,1.2c0.2,0.3,0.5,0.6,0.9,0.7
		l0.5,0.6l1.5,0.9c0.6,0.2,1.1,0.2,1.6,0c0.5-0.2,0.8-0.6,1-1.2l0.2-0.2l1.6-1.6l1.2-0.9c0.9-0.2,1.5-0.5,1.8-1
		c0.1-0.4,0.2-0.7,0.4-0.8l1.4-1c0.1-0.1,0.6,0.1,1.7,0.7c0.5,0.1,1,0.1,1.4-0.1l1-0.6c0.9,0.2,2.6,1.4,4.9,3.5
		c0,0.2,0.1,0.5,0.4,0.8c0.2,0.2,0.7,0.4,1.5,0.6l0.6,1l0.6,0.2c0.8,0,1.6-0.3,2.3-0.9l0.9-0.3c0.5-0.3,0.7-0.7,0.6-1l-0.4-0.4
		L48.7,76c-1-0.5-1.9-1.1-2.9-1.8l-0.6-0.5c2.9,0.5,6.5,0.9,10.9,1.2c0.5,0.1,1.2-0.2,2.1-0.8c0.9-0.7,3.6-2.6,8.1-5.8
		c0.7-0.7,1.2-1.6,1.6-2.5c-0.4-0.4-0.8-0.9-1.1-1.6c-0.3-0.7-0.5-1.3-0.6-1.8c-0.1-0.5-0.1-0.9,0-1.2c0.1-0.4,0-0.7-0.4-1
		c-0.1-0.2-0.4-0.3-0.9-0.4c-0.9-0.1-1.8-0.1-2.9,0c-0.5-0.1-0.8-0.2-0.9-0.4l0-1c0.1-0.4,0-0.6-0.4-0.6c-1.2,0.3-1.9,0.6-2.1,0.9
		c-0.3,0.4-0.3,0.8,0,1.2c0.3,0.3,0.4,0.6,0.4,0.9c-0.2,1.8-0.3,3-0.4,3.6c-2,1.6-3.3,2.5-4,2.8c-0.6,0.2-1.8,0.1-3.8-0.2
		c-0.4-0.4-0.7-1-0.9-1.9c0.7-0.4,1.4-0.9,2.1-1.4c0.5-0.1,0.9-0.2,1.3-0.3c0.3-0.1,0.5-0.4,0.5-1c0.3-0.1,0.6-0.4,0.8-0.9l2.3-2.8
		c0.7-0.6,1.6-1,2.4-1.1c1.1-0.1,2.5-0.7,4.2-1.8c0.3-0.3,0.3-0.7,0-1.2c0.5-0.3,1.3-1.1,2.5-2.5c0.5-0.6,0.6-1.4,0.3-2.1
		c1.1-1.3,1.7-2.3,1.8-3.1c0.1-0.7,0.1-1.4,0-2.2c0.5-0.3,0.9-0.6,1.1-0.8c0.2-0.2,0.3-0.5,0.3-0.9c0-0.4-0.1-0.7-0.4-1
		C69.9,40.9,70,40,69.4,39.1z M32.1,7.1c0,0.5-0.3,1.1-0.9,1.7c-0.9,0.9-2.1,1.6-3.5,2.4c-1.4,0.7-3.3,1.6-5.3,2.6v-0.2
		c2.5-2,5.1-3.7,7.4-5c0.6-0.4,0.4-0.5-0.3-0.3c-0.8,0.4-1.7,0.9-2.6,1.5c-1.6,1-3.2,2.1-4.7,3.1l0-0.5c3-2.7,5.6-4.4,7.5-5.2
		C30.7,6.8,31.5,6.8,32.1,7.1z M23,8c1.5-1.2,3.2-2.1,5.2-2.8c1-0.3,1.8-0.4,2.6-0.4c0.3,0.1,0.4,0.3,0.3,0.6l-0.9,1.2
		c-0.8,0.1-1.8,0.5-3.2,1.3c-1.4,0.8-2.8,1.8-4.4,3.1l-0.6,0.4c-0.3-0.2-0.8-0.1-1.6,0.3C22.9,9.6,25.1,8,26.9,7
		c1.2-0.6,1.9-1,2-1.2c-0.6,0.2-1.4,0.5-2.5,1.1c-1.1,0.6-2.8,1.8-5.3,3.6l-2.4,2.1C20.1,10.7,21.5,9.2,23,8z M20.5,12.5
		c0.4-0.2,0.7-0.3,0.9-0.3c0.1,0.3,0.1,0.6,0.1,1.1c-0.1,0.5-0.4,1.5-1,2.9l-1.5,2.9c-1,0.1-2,0.6-3,1.4c0.5-0.8,1.1-1.8,1.7-2.8
		c0.7-1.1,1.7-2.7,3.2-4.8c0.2-0.4,0.2-0.5,0-0.3c-0.2,0.2-0.8,1-1.8,2.3c-1,1.3-2.3,3.4-4,6.2c-0.5,0.7-1.5,2.4-3.3,5.1l0.2-0.6
		l2.4-4.3l2.3-4.3C17.8,15.1,19.1,13.6,20.5,12.5z M10.7,22.3c1.1-1.7,2.4-4.2,3.9-7.4c0.5-0.9,1.1-2,2-3.2c0.3-0.6,0.1-0.6-0.4,0
		c-1.3,1.6-2.8,4.2-4.6,7.7l0.8-1.9c0.1-0.4,0.6-1.4,1.3-2.9c0.7-1.5,1.4-2.7,2.1-3.6s1.2-1.5,1.4-1.7c1-0.8,1.5-1.2,1.7-1.2
		c0.1,0.1,0.2,0.3,0.1,0.5l-2,5.1c-1.3,2.5-3,5.1-5.1,7.8c-0.9,1-1.4,1.6-1.6,1.8c-0.2,0.3-0.4,0.5-0.5,0.8l0.2-0.7L10.7,22.3z
		 M11.7,26.9c-0.6,1-1,2-1.3,2.8l-0.3,0L11,27L11.7,26.9z M8.8,33.7l0.3-1.2l0.2-1.2l0.6-0.1l-0.8,2.2l-0.6,1.9L8.8,33.7z M8.6,29.3
		C8.8,28.1,9.1,27,9.4,26l0.3,0.4L8.6,29.3z M7.1,37.3L6.9,37c-0.2-0.2,0.1-1.8,0.8-4.7C7.5,34.4,7.3,36.1,7.1,37.3z M6.5,35
		c-0.2-1.1-0.1-3.4,0.4-6.9c0.5-3.5,1.1-6,1.8-7.5c0.3-0.8,0.3-0.9,0-0.4C7,23,6,27.1,5.8,32.5c-0.1,1.9,0.1,3.3,0.3,4.1
		C6.4,37.5,6.7,38,7,38.1c0.2,0.1,0.4,0.1,0.6,0c0,0-0.2,0.7-0.1,0.9c-0.7-0.3-1.2-0.9-1.6-1.6c-0.3-0.8-0.6-1.8-0.9-3
		c-0.3-1.2-0.4-2.7-0.3-4.4c0.1-2,0.4-4,0.9-5.9c0.7-2.7,2-5.2,4.1-7.6c0.5-0.5,0.7-0.6,0.8-0.4c0.1,1.1,0.1,2.1,0,3.1
		s-0.4,2.1-0.8,3.4c-1,3.5-1.7,5.8-1.9,7C7.4,30.9,7,32.7,6.5,35z M7.7,38.9v-0.6c1-1.1,0.9-2.1,1.3-3.1l1.4-3.6l1.6-3.8
		c0.9-1.7,2.1-3.7,3.7-5.9c0.9-1.1,1.8-1.7,2.5-1.8c0.2,0.3,0.2,0.8,0,1.6c-0.2,0.8-0.5,1.7-1,2.6c0,0-0.1,0,0,0
		c-1.7,3.2-3.4,5.5-5,6.9l2.8-4.5l1.3-2.4c0.5-0.9,0.6-1.2,0.3-1c-2.7,4.1-4.3,6.6-4.9,7.7c-0.5,1-1.1,2-1.6,2.9
		c-0.5,0.9-1,1.6-1.2,2.1C8.8,36.7,8.7,37.6,7.7,38.9z M18.4,40.5c-0.1,1.2-0.3,2.7-0.8,4.5c0-1.5-0.1-2.5-0.2-3l0.4-1
		c0-0.3,0-0.4-0.2,0l-0.2,0.4l0-0.8l0.6-0.8C18.3,39.5,18.5,39.7,18.4,40.5z M17.8,38.4c0.3-0.1,0.4,0.1,0.2,0.5L17.3,40
		c-0.1-0.5-0.1-0.8-0.2-1.2C17.4,38.6,17.6,38.5,17.8,38.4z M14.7,40.2c0.6-2.2,1.1-3.4,1.6-3.5c0.3,0.8,0.5,2.2,0.7,4.3
		c0.2,2.1,0.2,4,0,5.7c-0.2,2.1-0.6,3.6-1.1,4.3l-0.5,1.1c0-1.7,0-3,0.1-4.1c0-1,0.1-2.4,0.1-4.2c0-1.7,0.2-3.7,0.3-5.9
		c0.1-0.5,0.1-0.7-0.1-0.4c-0.4,2.2-0.7,5.1-0.8,8.5l0,2.3L15,51.7l-0.5-0.6c-0.4-1.9-0.5-3.8-0.5-5.9C14,43.6,14.3,42,14.7,40.2z
		 M11.1,47c0.4-2,1.5-4,3-6.1c-0.3,1.1-0.4,1.9-0.4,2.4c-1.2,2-2.1,4.1-2.7,6.1c-0.2,0.6-0.3,1.4-0.4,2.2
		C10.5,50.5,10.7,48.9,11.1,47z M13.8,50.3l-0.9-1.1l0.6-1.6C13.5,48.5,13.6,49.4,13.8,50.3z M21.9,66.9l0.6-1.6l1.8,1.2L21.9,66.9z
		 M26.3,66.1l-3-1.8l-2.8-1.8L20,61.7c-0.2-0.2-0.4-0.2-0.7-0.1c-0.3,0.1-0.5-0.1-0.7-0.5c-0.7,0.4-1.5,0.3-2.2-0.5l-1.3-1.6
		l-1.2-2.1l-0.4-0.3c-0.3,0.2-0.5,0.2-0.8,0.2c-0.5-0.1-1.1-0.4-1.7-1.1c-0.4-0.3-1.2-1.7-2.4-4.1c-1.6-3.1-2.7-5.4-3.3-7
		c-0.4-1.3-0.7-2.1-0.8-2.5c-0.1-0.3-0.2-0.4-0.2,0c0,0.3,0.2,1.1,0.6,2.2c0.4,1.2,1.1,2.9,2.1,5.1c0.9,1.8,1.8,3.5,2.6,5
		c-2-2.1-3.4-4.1-4.3-6c-0.9-1.8-1.5-3.6-1.8-5.1c-0.1-0.6-0.2-1.4-0.2-2.6c0-1.2,0-1.8,0-1.9c0.1-0.4,0.3-0.6,0.6-0.5
		c0.2,0,0.5,0.4,1.1,1.1c0.6,0.8,1.4,2.5,2.3,5.1c1,2.7,1.6,4.4,1.8,5.2c0.2,0.8,0.5,1.6,0.7,2.2c0.2,0.6,0.5,1.2,0.8,1.9
		c0.5,1,1,1.6,1.4,2c0.6,0.4,1.1,0.5,1.4,0.2l-1.5-2.6c-0.1-0.1-0.3-0.1-0.5,0c0,0,0,0-0.1,0c0,0,0,0,0,0c-0.1,0-0.1,0-0.2,0
		c-0.1,0-0.1,0-0.2,0c0,0-0.1-0.1-0.1-0.1c0,0-0.1-0.1-0.1-0.1c0,0,0-0.1-0.1-0.2c0-0.1,0-0.1-0.1-0.2c0-0.1,0-0.3,0-0.5
		c0.1-0.5,0.2-1.3,0.5-2.5c0.6-2,1.4-3.9,2.5-5.9c-0.1,0.9-0.2,1.6-0.2,2.2c-1,2.2-1.7,4-2.2,5.4c-0.2,1-0.2,1.5,0,1.4l0.3-0.2
		l-0.2-0.6l0.2-0.4l0.5,0.8l0.3-0.2l0.2,0.4L12.4,53l1.8,2.6l0.4-0.4l0.3,0.4c-0.5,0.5-0.7,0.9-0.6,1c0.5,0.9,0.9,1.6,1.3,2.1
		c0.8,1.2,1.5,1.5,2,1c0.2-0.1,0.4-0.1,0.6,0.1c0.2,0.2,0.5,0.6,0.8,1.2l0-0.9l-1.5-1.4l-0.8-1.7c-0.7-1-1.2-1.8-1.5-2.3
		c-0.3-0.5-0.7-1.2-1.1-1.9c-0.4-0.7-1-1.6-1.6-2.5l0.1-0.4l1.3,1.6c1.2,1.5,2,2.6,2.4,3.4c0.5,0.8,0.7,0.9,0.8,0.5l0.2-0.8l0.4,0.2
		l-0.2,1.6l-0.1,0.5c0,0.4,0,0.6,0.2,0.7c0.2,0.1,0.3,0.3,0.5,0.7c0.1,0.3,0.5,0.8,1.3,1.7c0.8,0.8,1.6,1.6,2.4,2.1
		c0.8,0.6,1.5,1,2.1,1.4c0.5,0.4,0.8,0.7,0.8,1.1l0.8,0.2l-0.2-1l0.5-0.1c0.2,0.2,0.4,0.5,0.6,0.9c0.7,0.5,1.3,1,1.8,1.3L26.3,66.1z
		 M13.1,53l0.2-0.2l1.1,1.9l-0.1,0.2L13.1,53z M15,56.8l0.4-0.6l1,1.5l0.6,1.1l0.2,0.6c-0.4-0.2-0.7-0.5-1-0.8l-0.6-0.8L15,56.8z
		 M29,65.6l-1.7-1.2c-0.7-0.8-1.2-1.4-1.5-1.8c-0.3-0.4-0.6-0.6-0.9-0.8c-0.4-0.2-0.8-0.3-1-0.2c-0.2,0.1-0.4,0.3-0.6,0.8l-0.1-0.1
		c0.1-0.5,0.3-0.7,0.5-0.8c0.2-0.1,0.5-0.1,0.9,0.1l1.9,0.9l3.3,1.2c0.8,0.9,1.3,1.4,1.5,1.8C30.5,65.5,29.7,65.6,29,65.6z M30,74
		c-1.1,1.1-2.4,2.1-3.8,3.1l-0.5-0.2c0.8-0.5,2-1.3,3.5-2.5l0.7-0.8l-0.4,0c-0.5,0.5-1.1,0.9-1.7,1.4c-0.7,0.5-1.4,0.9-2.3,1.3
		l-1.2,0.6l0.2,0.2l0.9,0.1c0.5,0.3,0.7,0.6,0.6,1c-0.3,0.4-0.7,0.5-1.3,0.2l-1-0.5c-0.3-0.3-0.7-0.6-1-0.7l-0.4-0.3l0.2-0.4
		l1.2,0.5h0.4l-0.2-0.8l1.4-0.9c0.4-0.1,0.5-0.4,0.5-0.7l0.1-0.7c0.6,0.1,1.3,0,2-0.3c0.7-0.3,1.4-0.5,2-0.6
		C30.4,73.3,30.4,73.6,30,74z M46.8,11.5l0.1-0.9l-0.8,0.2c-0.7,0.2-1.4,0-2.2-0.6c-0.5,0.1-0.7-0.1-0.6-0.6
		c0.2-0.4,0.1-0.6-0.2-0.6L42,9c-0.7-0.1-1.2-0.3-1.5-0.6c-0.2-0.3-0.1-0.6,0.3-1c-0.7-0.3-1.2-0.6-1.3-1c-0.2-0.3-0.1-0.6,0.3-0.8
		c0.4-0.2,1.1-0.3,2.1-0.1c-0.2-0.3-0.3-0.6-0.2-0.9c0-0.3,0.7-0.1,2.1,0.5l0.8,0.5c0.2-0.4,0.6-0.5,1.1-0.4
		c0.6,0.3,1.2,0.6,1.7,1.1c0.5,0.4,1.1,1,1.8,1.8c0.6-0.4,1-0.3,1.2,0.2l0.1,1c-0.6-0.6-1.3-0.6-2.2-0.1l-0.6-0.2
		c-0.8-0.9-1.2-1.6-1.4-2.1c-0.2-0.6-0.2-0.7-0.2-0.2c0,0.5,0.3,1.2,1,2c-1.2-0.4-2-0.9-2.6-1.4c-0.5-0.6-1-1.1-1.3-1.5
		c-0.3-0.5-0.4-0.5-0.4,0c0.3,0.6,0.8,1.1,1.3,1.6c-0.4-0.2-0.8-0.4-1.2-0.6c-0.9-0.4-1.7-0.6-2.3-0.6c-0.3,0-0.3,0.1,0,0.2
		c1,0.3,1.8,0.5,2.3,0.7c0.5,0.2,0.8,0.4,0.9,0.6c-0.7,0.3-1.5,0.5-2.3,0.4c-0.5,0-0.7,0-0.7,0c0.1,0.1,0.2,0.1,0.5,0.2
		c1,0.1,1.9,0,2.9-0.3C45,8.3,45.9,8.7,46.9,9c-0.6,0.1-1.2,0.4-1.7,0.8c-0.2,0.3-0.1,0.3,0.3,0c0.4-0.3,1.1-0.5,1.9-0.6l0.7,0.3
		c-0.1,0.7,0.1,1.5,0.5,2.2l-0.4,0.2L46.8,11.5z M51.3,15.8c-1.5,0-1.8,0-1.9-0.2c-0.1-0.2-0.1-0.3,0.4-0.6l0.3-0.5
		c-0.9-0.4-1.7-0.9-1.7-2l0.7-0.3c0.3-0.4,0.3-0.7,0-0.8c-0.3-0.2-0.5-0.7-0.5-1.5c0.3-0.6,1-0.6,2.2,0c0.5-1,1.1-1.3,1.8-0.9
		c-0.8,0-1.2,0.3-1.4,1c-0.1,0.4-0.1,0.9,0,1.6c-0.3-0.4-0.6-0.7-1-1c-0.7-0.4-0.9-0.3-0.4,0.1c0.5,0.5,0.9,0.9,1.2,1.4
		c-0.6,0.5-1.2,0.7-1.9,0.6c-0.2,0.1-0.2,0.2,0.1,0.2c0.3,0.1,0.7,0.1,1.1-0.1c-0.1,0.4,0.1,1.1,0.3,1.6c0.3,0.4,0.6,0.7,1,1
		C51.6,15.5,51.4,15.6,51.3,15.8z M52.2,16.5c0-0.3,0.3-0.5,0.8-0.5c0.6,0,0.7-0.2,0.3-0.5c-0.8-0.3-1.4-0.7-1.9-1.4
		c-0.3-0.5-0.3-0.8,0-1L52,13l0.3-0.4l-0.4-1.4c-0.1-0.7,0.1-1.2,0.6-1.5c0.7-0.1,1.4,0.1,2.1,0.6c0-0.4,0.3-0.5,0.7-0.3
		c0.5,0.1,0.9,1.1,1.3,3l0.6,0.2c0.2-0.5,0.4-0.8,0.5-0.8c0.2,0,0.4,0.4,0.6,1.3c0.5,0.5,0.8,1.3,0.8,2.4c-0.3,0.5-0.5,1-0.6,1.7
		l-0.3-0.7c-0.2-0.8-0.3-1.6-0.2-2.5c0-0.4-0.1-0.4-0.1,0c-0.1,0.8-0.1,1.4,0,2c-0.7-0.9-1.5-1.8-2.3-2.5c-0.2-0.6-0.2-1.3-0.2-2
		c-0.1-0.6-0.1-0.8-0.2-0.4c-0.1,0.8,0,1.6,0.1,2.2c-0.6-0.6-1.3-1.5-2.2-2.7c-0.2-0.4-0.3-0.5-0.3-0.2c0.5,1,1,1.8,1.6,2.4
		c0.6,0.6,1,1.1,1.4,1.5c-0.7-0.2-1.3-0.4-1.8-0.4c-0.5-0.1-1-0.2-1.4-0.4c-0.4-0.1-0.4,0,0,0.3c0.2,0.2,0.7,0.3,1.5,0.4
		c0.7,0.1,1.4,0.4,2.1,0.7c0.3,0.2,0.8,0.8,1.4,1.6l0.5,1.1c-0.7-0.4-1.6-0.7-2.5-0.8c-0.9-0.2-1.4-0.3-1.6-0.4
		c-0.7-0.3-0.8-0.3-0.2,0.1c0.2,0.2,0.7,0.3,1.7,0.5c1,0.2,1.9,0.6,2.8,1.1l0.1,0.2c-0.2,0.2-0.3,0.5-0.2,0.9l0.3,0.8
		c-0.2-0.3-0.6-0.2-1,0.4c0.2-0.3,0.1-0.7-0.1-1c-0.4-0.6-1.3-1.2-2.7-1.8l-0.2,0.4C53.2,18.2,52.5,17.5,52.2,16.5z M62,36.5
		c-0.3-0.4-0.7-1-1.2-1.9s-0.9-1.6-1.1-2.1c-0.2-0.5-0.3-1.1-0.1-1.6c0.2-0.6,0.3-1,0.4-1.3c0.1-0.3,0.1-0.3,0-0.2
		c-0.3,0.6-0.5,1.1-0.7,1.6l-0.8-2.3c0.1-0.9,0.6-2.1,1.4-3.5c0.3-0.5,0.2-0.5-0.1-0.1c-0.8,1.1-1.3,2.2-1.6,3.2l-1.2-2.8
		c0-0.5,0.3-1.5,1-2.9c0.3-0.7,0.3-0.7-0.2,0.1c-0.4,0.8-0.7,1.6-0.9,2.2c-0.4-1.5-0.7-2.8-1.1-3.9l-0.3-0.1l0.2,0.4
		c0.2,1.3,0.5,2.5,0.9,3.5c-0.5-0.5-1.1-0.8-1.7-1.1c-0.3-0.2-0.3-0.1,0,0.1c0.8,0.5,1.4,0.9,1.8,1.4c0.3,0.7,0.6,1.4,0.9,2
		c-0.5-0.3-1.3-0.7-2.4-1.2c-0.4-0.1-0.4,0,0,0.2c1.4,0.6,2.3,1.2,2.7,1.7l0.8,2.1c-0.3,0-0.7-0.4-1.2-1.3c-0.4-0.7-1.4-1.5-3-2.2
		c-0.3-0.1-0.5-0.4-0.4-0.8c0.1-0.3,0.4-0.4,0.9-0.4c-0.2-0.5-0.3-0.8-0.6-1.1L53.8,24c-0.4-0.9-0.2-1.3,0.8-1.3
		c-0.3-0.5-0.5-0.9-0.4-1.2c0-0.5,0.1-1,0.4-1.5c0.2-0.3,0.3-0.6,0.4-1c0.5,0.3,1,0.5,1.4,0.7c0.4,0.2,0.6,0.6,0.7,1.1l-0.2,1.2
		c0.1,0.2,0.3,0.2,0.6-0.2c0.3-0.5,0.6-0.8,0.8-0.8c0.3,0.1,0.6,0.4,0.8,0.7c0.3,0.5,0.2,1.4-0.3,2.8l-0.4,1.1
		c0.9-1.2,1.6-1.8,2.2-1.7c0.2,0.1,0.2,0.4,0.2,0.8c-0.1,0.4-0.1,0.8,0,1.3c0.1,0.5-0.1,0.8-0.5,1.2c-0.4,0.3-0.6,0.8-0.8,1.6
		c0.9-0.6,1.2-0.5,1,0.4l-0.5,1.7c-0.1,0.8,0,1.2,0.4,1.2c0.4-0.1,0.6,0,0.7,0.2c0.1,0.2,0.1,0.4,0.1,0.8c-0.2,0.6-0.3,0.9-0.3,1.1
		c0,0.2,0.1,0.3,0.2,0.4c0.1,0.1,0.4,0.1,0.8-0.1c0.4-0.2,0.6-0.1,0.6,0.4c0,0.4,0,0.8,0,1.2c0,0.4,0.1,0.8,0.4,1.1
		c0.2,0.3,0.4,0.4,0.7,0.5l0.4-0.4c-0.5,0-0.8-0.3-0.7-1c0-0.7,0-1.3,0-1.7c-0.2-0.5-0.4-0.8-0.6-0.8c-0.2-0.1-0.7-1.4-1.5-4l0.8,0
		c0.6,2.2,1.1,3.5,1.5,3.6c0.4,0.2,0.5,0.4,0.5,0.6c0,0.2,0,0.7,0.2,1.5c0.5-0.1,0.8-0.6,0.8-1.3c0.1-0.7-0.1-1.2-0.6-1.6
		c-0.6-0.3-0.9-0.6-1-0.9c-0.2-0.5,0-0.7,0.5-0.8c0.3-0.2-0.4-0.8-2.1-1.9c-0.9-0.6-1.2-1.2-0.8-1.6c0.1-0.2,0.4-0.2,0.7,0
		s0.6,0.3,0.7,0.2c0.2-0.4,0-0.6-0.4-0.8c-0.5-0.1-0.7-0.3-0.7-0.5c0-0.8,0-1.4,0-1.7c0.1-0.3,0-0.6-0.1-1c-0.3-0.4-0.9-0.4-1.7,0.1
		c0.2-0.5,0.2-0.9,0.1-1.3c-0.1-0.4-0.3-0.8-0.6-1.2l-0.4-1.2c-0.1-0.4,0.1-0.7,0.7-0.9c-0.2-0.8-0.2-1.4,0-1.8
		c0.2-0.4,0.3-0.7,0.4-0.9c0.1-0.2,0.3-0.3,0.7-0.1c0.4,0.2,1,0.9,1.9,2.1c0.4-0.5,0.8-0.3,1.2,0.5c0.5,0.7,0.7,1.6,0.6,2.7
		c1-0.5,1.3-0.2,1,1.1c0.4,0.9,0.7,1.6,0.8,2.1c0.1,0.5,0,1-0.2,1.4c-0.3,0.4-0.4,0.8-0.4,1c0,0.2,0.1,0.2,0.3,0
		c0.2-0.2,0.5-0.4,1.1-0.6c0.3,0.7,0.5,1.2,0.4,1.5c0,0.3-0.2,0.6-0.5,1c-0.4,0.3-0.6,0.8-0.6,1.2c0,0.2,0.1,0.4,0.4,0.4l0.7-0.2
		c0.4-0.1,0.4,0.2,0,0.9c-0.4,0.7-0.6,1.3-0.8,1.8s-0.3,0.9-0.3,1.2c0,0.6-0.1,1-0.3,1.1c0.1-0.8,0-1.6-0.1-2.4
		c-0.1-0.8-0.3-1.8-0.5-2.8c0.2-0.2,0.5-0.8,0.9-1.9c0.2-0.5,0.1-0.6-0.1-0.2c-0.3,0.8-0.6,1.3-0.9,1.5c-0.3-1-0.6-2.2-1-3.6
		c0.4-0.7,0.7-1.5,0.8-2.5c0-0.9,0-0.9-0.2-0.2c-0.2,1-0.5,1.8-0.9,2.4c-0.3-1.1-0.7-2.2-1.1-3.2c0.1-0.6,0.2-1.2,0.2-2
		c0-0.7-0.1-0.8-0.2-0.1c0,0.6-0.1,1-0.2,1.4l-0.9-2.2l-0.6-1.3c-0.2-0.4-0.3-0.4-0.2,0l0.5,1.7c-0.4-0.5-0.8-0.8-1.1-1
		c-0.3-0.2-0.4-0.2-0.2,0c0.6,0.5,1.1,1.1,1.5,1.6c0.3,0.9,0.7,1.7,1,2.6c-1-0.9-1.7-1.3-2.1-1.4c-0.5-0.2-0.5-0.1,0,0.3
		c0.7,0.5,1.6,1.3,2.6,2.4c0.3,0.9,0.6,1.8,0.9,2.7c-0.5-0.3-1.1-0.9-1.8-1.8c-0.3-0.3-0.3-0.3,0,0.2c0.6,0.9,1.3,1.7,2,2.3l0.6,2.4
		c-0.6-0.6-1.4-1.2-2.4-1.9c-0.4-0.3-0.5-0.2-0.1,0.2c0.9,0.6,1.8,1.5,2.7,2.7c0.3,0.7,0.4,2.1,0.4,4.1c0,0.5-0.4,0.9-1.1,1.1
		l-0.2,1.9l-1,0C62.6,37.5,62.2,36.9,62,36.5z M63.3,38.4c0.2-0.1,0.5,0,0.9,0c-0.4,2-0.8,4.3-1.2,5.6l-0.6-0.3
		C62.9,41.8,63.2,39.6,63.3,38.4z M56.1,49.8c-0.1-0.1-0.6-0.5-1.3-1.1c-0.7-0.6-0.9-1.1-0.6-1.6c-0.2-0.2-0.4-0.5-0.5-0.8
		c-0.1-0.3-0.1-0.6,0.1-0.9c0.2-0.3,0.7-0.2,1.5,0.4c0.1-0.5,0.1-0.9,0-1.3s-0.3-0.8-0.5-1.2c-0.3-0.6-0.7-1.2-1-1.6
		c-0.3-0.6-0.4-1-0.2-1c0.2-0.1,0.4,0,0.8,0.3c0.7-0.7,1.1-0.9,1.3-0.6c0.2,0.3,0.4,0.8,0.5,1.5c0.1,0.7,0.1,1.5,0,2.2L56,44.3
		l0.2,0.2c0.1,0.2,0,0.8-0.2,1.8c0,0.2,0.1,0.4,0.2,0.6c-0.1-0.3-0.1-0.6,0-0.7c0-0.1,0.1-0.4,0.3-0.9c0.1-0.5,0.2-0.8,0.2-0.8
		c0-0.1,0-0.1-0.2-0.1c0.2-0.1,0.3-0.2,0.3-0.3c0.1-0.1,0.1-0.3,0-0.4c0-0.1-0.1-0.6-0.1-1.3c0-0.7-0.1-1.2-0.2-1.6
		c-0.1-0.4-0.2-0.6-0.2-0.8c0-0.2-0.2-0.3-0.5-0.3c-0.3,0-0.7,0.3-1.2,0.9c0.2-1.1,0.5-1.9,0.7-2.3c0.3-0.4,0.5-0.5,0.8-0.3
		c0.3,0.2,0.4,0.3,0.5,0.5c0.1,0.2,0.2,0.2,0.4-0.1c0.2-0.3,0.3-0.3,0.4-0.3c0.1,0.1,0.2,0.2,0.3,0.5c0.1,0.2,0.2,0.5,0.3,0.8
		c0.1,0.3,0.1,0.8,0.1,1.5c0,0.7,0,1.2-0.3,1.4c-0.2,0.2-0.3,0.5-0.3,0.9c0.1,1.4,0.2,2.1,0.3,2.1c0.2,0,0.4-0.1,0.6-0.3
		c0.2-0.2,0.4-0.3,0.6-0.2c0.2,0.1,0.3,0.4,0.3,1.2c0,0.7,0.1,0.8,0.2,0.2c0.1-0.6,0.3-0.9,0.6-0.9c0.3,0,0.3,0.8,0.2,2.3
		c-1,0.9-1.8,1.7-2.2,2.3c-0.2-0.7-0.2-1.1,0-1.4c0.1-0.3,0.3-0.6,0.4-0.9c0.1-0.3,0.2-0.6,0.3-0.9c0.2-0.6,0.2-0.7-0.1-0.2
		c-0.2,0.3-0.3,0.6-0.4,0.8c-0.1,0.2-0.3,0.5-0.4,0.7c-0.1-0.4-0.2-1.2-0.5-2.3c-0.2-0.7-0.3-0.7-0.2,0c0.2,1.3,0.4,2.5,0.4,3.7
		c-0.5-0.5-0.9-0.9-1.4-1.2c-0.5-0.3-0.9-0.7-1.2-1.1c-0.3-0.2-0.3-0.2-0.2,0.1c0.3,0.4,0.8,0.9,1.4,1.5c0.6,0.6,1,1,1.1,1.1
		c0.1,0.2,0.2,0.3,0.2,0.5c-0.2,0.3-0.5,0.7-0.8,1c-0.2-0.1-0.3-0.3-0.3-0.5C56.4,50.2,56.3,50,56.1,49.8z M41.8,64.5
		c0.3-0.4,0.7-0.7,1.2-1c2.3-1.1,3.8-1.8,4.5-2c0.1-0.1,0.3,0,0.4,0.1l0.3,0.4l-0.4,0.3c-0.3,0.2-0.6,0.3-1,0.3
		c-0.3,0-0.8,0.1-1.4,0.3c-0.6,0.3-0.9,0.6-1,1.1c-0.1,0.3-0.3,0.5-0.4,0.6c-0.6,0.3-1.1,0.6-1.6,0.8l-1.2-0.1L41.8,64.5z
		 M45.2,65.8H45l0-0.1c-0.1,0.1-0.3,0.1-0.4,0.1l-1.3-0.2l1.4-0.7l0.4,0.7c0.1,0,0.1-0.1,0.2-0.1L45,64.9c-0.1-0.5,0-0.9,0.5-1.1
		c0.4-0.3,0.9-0.5,1.4-0.4c0.2,0,0.2,0.4,0,1.1c-0.1,0.3-0.7,0.8-1.7,1.2L45.2,65.8z M39.3,71l-0.2-0.6L38,71.7l-0.9,0.6
		c-0.4,0.3-0.8,0.5-1.2,0.4L34.5,72l0.7-0.4l0.2,0.2c-0.1,0.4,0,0.3,0.5-0.2l1.2-1.2c0.1-0.7-0.1-1.7-0.5-2.8
		c-0.4-1.1-0.7-1.9-1-2.1c-0.1-0.2-0.7-0.3-1.8-0.2c0.7-0.3,1.5-0.4,2.4-0.1l1,0.4l0.5-0.2l-0.1-0.1L36.8,65l0.5,0l0.4,0.4l0.1,0.1
		l0,0l0.3,0.3c1.4,1.5,2.1,2.5,2.3,3c0.2,0.5,0.2,1.1,0.1,1.6C39.9,71,39.5,71.2,39.3,71z M48.9,76.8l0.4,0.1l-0.2,0.2l-1,0.3
		c-0.5,0.4-1,0.7-1.6,0.8l-0.7-0.1l-0.2-0.5c0.2-0.2,0.4-0.4,0.6-0.5c0.3-0.1,0.6-0.2,1-0.3l1,0.2L48.9,76.8z M47.4,76.6
		c-0.7,0-1.2,0.5-1.4,0.5h-0.6c-0.8-1-1.4-1.2-1.8-1.7l-1.9-1.6c0.3-0.2,1.1-0.1,2.2,0.3L47.4,76.6z M53.2,68.2
		c0.8,0.1,1.4,0,1.8-0.1c0.7-0.3,2.2-1.4,4.5-3.3c2.2-1.6,4-2.8,5.5-3.4c0.5-0.3,0.5-0.5,0.1-0.6c-0.4-0.1-1-0.2-1.9-0.2
		c-0.3,0.2-0.2,0.4,0.1,0.5c0.4,0,0.6,0,0.8,0.1c-1.8,0.9-3.3,1.9-4.5,2.8c0.1-0.6,0.2-1.7,0.3-3.2c0-0.5-0.2-0.9-0.5-1.3
		c-0.2-0.3,0-0.5,0.7-0.7l0.5-0.2v0.9l-0.7-0.2l0.1,0.4c0.2,0.3,0.5,0.5,0.9,0.6l2.2,0.1l1,0c1.1,0,1.7,0.3,1.6,0.8
		c0,0.5,0,1,0.1,1.5c0.2,1.1,0.6,2.2,1.4,3.3c-0.2,0.5-0.5,1-1,1.7l-2.1,1.4c-1.8,1.3-4.2,3-7.3,5c-2.2,0.1-4.8-0.1-7.9-0.5
		c-2.2-0.3-4.8-0.9-7.7-1.7l-0.6-0.2l0.3-0.3c0.5-0.6,0.7-1,0.7-1.2c0-0.2,0-0.7-0.2-1.4c-0.2-0.7-0.5-1.5-1.5-2.5v-0.2l0.6-0.1
		c1.7,0.1,3.1,0.3,4.4,0.6c1.3,0.3,2.8,0.6,4.6,0.9C51.1,67.9,52.4,68.1,53.2,68.2z M50.1,67.1c-0.7-0.1-1.8-0.3-3.4-0.6l1.4-0.5
		c0.7,0.2,1.2,0,1.3-0.5C49.6,66.1,49.8,66.6,50.1,67.1z M58.5,55.3c-0.5,0.6-0.7,1.2-0.5,1.8c-0.7,0.4-1.5,1-2.2,1.8
		c-0.7,0.8-1.2,1.4-1.6,2c-0.4,0.5-0.7,0.9-1.1,1c-0.5,0.2-1,0.1-1.6-0.3l-0.2,1l-2.7,1.6l-1.3,0.6c0.1-0.3,0.2-0.7,0.2-1.4l0.5-0.4
		c1.8-1,2.9-1.8,3.2-2.6c0.4-0.7,0.8-1.2,1.2-1.7c0.4-0.4,0.7-1,0.9-1.6l0-1l-0.1-1c0.4,0.5,0.8,0.6,1.2,0.3c0.6-1,1.2-2,1.8-2.9
		c0.6-0.9,1.3-1.7,2-2.5c0.7-0.8,1.3-1.4,1.8-2l0,1c-1.6,2-2.6,3.3-3,4.1c-1.4,2.1-2.3,3.7-2.8,4.9c-0.3,0.7-0.7,1.2-1.3,1.6
		c-0.4,0.2-0.7,0.4-1,0.7c-0.2,0.3-0.1,0.4,0.3,0.3c0.3-0.3,0.6-0.5,0.9-0.6c0.6-0.3,1.8-1.7,3.8-4.2l0-1.4l0.4-0.8
		c0,0.8,0,1.2,0.2,1.3c0.2,0.1,0.4-0.1,0.7-0.7c0.3-0.5,1-2,2.1-4.3c-0.2,0.7-0.3,1.4,0,1.9c-0.6,0.5-0.8,1.2-0.5,2.3L58.5,55.3z
		 M67.5,46.4c-0.1,0.7-0.3,1.2-0.7,1.7c-1.1,1.3-1.6,2-1.4,2.2c0.3,0.5,0.2,1.1-0.2,1.7c-0.6,0.7-1.4,1.5-2.3,2.4
		c0.3,0.5,0.1,1-0.6,1.4c-0.8,0.4-1.6,0.8-2.6,1.1c1.7-1.3,2.8-2.7,3.2-4.2c0.6-0.5,1.1-0.8,1.5-1c0.4-0.2,0.4-0.3,0.2-0.3
		c-0.5,0.2-1,0.5-1.5,0.9c0.5-1,0.9-2.1,1.1-3.3c1-1,1.7-1.8,2-2.4c0.4-0.6,0.4-0.7,0-0.4c-0.4,0.7-1,1.4-1.8,2.1
		c0.4-1.1,0.7-2.4,1-3.9c0.1-0.8,0.1-1-0.1-0.4l-0.4,1.4c-0.2-0.6-0.4-1-0.6-1.3l0.5,1.7c-0.1,0.7-0.4,1.6-0.8,2.8
		c-0.4-1.1-0.9-2-1.5-2.9c-0.6-0.7-0.7-0.7-0.3,0c0.6,0.9,1.1,2,1.5,3.5c-0.3,1.3-0.7,2.4-1.1,3.2c-0.3-0.5-0.7-0.8-1-1
		c-0.3-0.1-0.3-0.1,0,0.2c0.3,0.3,0.6,0.7,0.8,1c-0.3,0.8-0.7,1.5-1.3,2c-0.5,0.6-1,1.1-1.5,1.5c0.6-1,0.9-2.1,0.6-3.3
		c0-0.2,0.2-0.4,0.5-0.5c0.3-0.1,0.4-0.3,0.3-0.4c-0.3-0.6-0.4-1.1-0.4-1.4c0.2-0.1,0.5-0.1,1,0c0.3-0.2,0.3-0.6-0.1-1
		c-0.4-0.4-0.7-1.1-0.8-1.9c0-0.5,0.3-0.7,1-0.5c0.3,0,0.3-0.4,0.1-1l-0.7-0.9c-0.5-1.1-0.3-1.5,0.6-1.2l1,0.6c0.7,0.3,1-0.2,1-1.4
		c0-0.3,0.2-0.3,0.6-0.2c0.4,0.1,0.8-0.2,1.1-0.9c0.3-0.4,0.6,0,0.8,1c-0.1,1.4,0.3,2.1,1,2C67.6,45.3,67.6,45.7,67.5,46.4z
		 M68.7,42.9c0,0.3,0,0.5-0.2,0.7c-0.2,0.2-0.5,0.3-0.9,0.5l-0.4-0.8c0-0.6-0.2-1.3-0.6-1.9c0.2-0.2,0.5-0.3,0.9-0.5
		c0.3-0.1,0.2,0-0.2,0.1c-0.4,0.1-0.8,0.5-1,0.5h-0.1c0.2-1,0.6-1.8,1.2-2.6c0.1-0.3,0.1-0.4-0.2,0c-0.5,0.6-0.9,1.3-1.2,2
		c-0.2-0.2-0.3-0.5-0.4-0.9c-0.1-0.5-0.2-0.5-0.2-0.1c0.1,0.6,0.2,1.1,0.4,1.3c-0.6,0.9-1.1,1.3-1.4,1.1c0.2-1.3,0.5-2.6,0.8-4.1
		c0.6-0.6,1.1-0.8,1.6-0.6c0.6-0.5,1.2-0.6,1.6-0.3c0.2,0.4,0.3,0.8,0.3,1.2c0,0.4-0.2,0.8-0.4,1.3c0.5,0,0.8,0.2,0.8,0.6
		c-0.2,0.9-0.6,1.6-1.3,2C68.4,42.5,68.7,42.7,68.7,42.9z"/>
	<path fill="#FFFFFF" d="M12.6,68.5c0,0.1,0.1,0.1,0.2,0.2c0.4,0.3,0.7,0.1,1-0.3c0.3-0.5,0.2-0.8-0.1-1.1c-0.2-0.2-0.2-0.2-0.4,0.1
		L12.6,68.5L12.6,68.5z M7.3,65c0.5,0.3,0.8,0.6,1.3-0.1c0.3-0.4,0.2-0.8-0.1-1c-0.1-0.1-0.3-0.2-0.3-0.2c-0.1,0-0.1,0.1-0.2,0.1
		L7.3,65L7.3,65z M14.9,68.7c0.1-0.4,0.1-0.6-0.1-0.9l0.1-0.1c0.2,0.1,0.4,0.3,0.6,0.3c0.2,0.1,0.4,0.3,0.7,0.3l-0.1,0.1
		c-0.1-0.1-0.4-0.2-0.5,0c-0.1,0.2-0.3,1.1-0.4,1.4l-0.3,1.6l1.1-1c0.2-0.2,0.9-0.9,0.9-1c0.2-0.3,0-0.4-0.1-0.5l0-0.2
		c0.2,0.2,0.4,0.3,0.5,0.3c0.2,0.1,0.4,0.2,0.5,0.2l0,0.1c-0.4-0.2-0.7,0.2-1.1,0.5l-2.3,2.1L14.2,72L14.9,68.7L14.9,68.7z M12,69.3
		c-0.1,0.2-0.3,0.6-0.3,0.7c-0.1,0.2,0.1,0.3,0.3,0.4l-0.1,0.1c-0.2-0.2-0.4-0.2-0.7-0.4c-0.2-0.1-0.4-0.2-0.6-0.3l0-0.2
		c0.2,0.1,0.4,0.3,0.5,0.1c0.2-0.1,0.4-0.5,0.5-0.7l0.8-1.4c0.1-0.2,0.3-0.6,0.4-0.7c0.1-0.3-0.1-0.4-0.3-0.4l0.1-0.1
		c0.2,0.2,0.5,0.2,0.7,0.4c0.2,0.1,0.4,0.3,0.6,0.3c0.5,0.2,0.9,0.8,0.4,1.4c-0.4,0.7-1.2,0.6-1.6,0.3c-0.1,0-0.3-0.2-0.3-0.2
		L12,69.3L12,69.3z M9.9,66.1c0.1-0.2,0.3-0.6,0.4-0.7c0.1-0.3-0.1-0.4-0.3-0.4l0.2-0.1l2,1.3l-0.5,0.7l-0.1-0.1
		c0.3-0.6,0.1-0.7-0.3-1.1L11,65.6c-0.1-0.1-0.1-0.1-0.3,0.1L10,66.9c0.6,0.4,0.8,0.1,1.1-0.1l0.1,0c-0.2,0.3-0.3,0.5-0.4,0.7
		c-0.2,0.3-0.2,0.5-0.4,0.7L10.2,68c0.3-0.6,0.1-0.7-0.3-1l-0.5,0.8c-0.1,0.2-0.3,0.4-0.2,0.6c0,0.3,0.2,0.5,0.4,0.5
		c0.5,0.2,0.7,0.3,1.2-0.1l0.1,0l-0.5,0.8L8,68.1L8.1,68c0.1,0.1,0.3,0.2,0.5,0.1c0.1-0.1,0.3-0.5,0.5-0.7L9.9,66.1L9.9,66.1z
		 M7.7,67.3c0,0.3,0,0.4,0.2,0.5L7.9,68c-0.1-0.1-0.2-0.2-0.3-0.3c-0.1-0.1-0.3-0.1-0.4-0.2l0.1-0.5l0-1.4c0-0.3,0-0.3-0.2-0.4
		l-0.4,0.6c-0.1,0.2-0.3,0.6-0.4,0.7c0,0.2,0.1,0.3,0.3,0.3l-0.1,0.1c-0.2-0.1-0.4-0.3-0.6-0.3c-0.2-0.2-0.4-0.3-0.7-0.4l0.1-0.1
		c0.2,0.1,0.3,0.2,0.5,0.1c0.2-0.1,0.4-0.5,0.5-0.7l0.9-1.4c0.1-0.1,0.3-0.5,0.4-0.7c0.1-0.2-0.1-0.3-0.2-0.4l0-0.2
		c0.3,0.2,0.5,0.3,0.8,0.5c0.2,0.1,0.4,0.3,0.5,0.3c0.5,0.3,0.9,0.8,0.4,1.4c-0.4,0.6-0.9,0.6-1.3,0.3L7.7,67.3L7.7,67.3z
		 M33.8,68.5l-0.7-1.4l-0.2,1.5L33.8,68.5L33.8,68.5z M22.2,71.2c0.1,0.2,0.1,0.4,0.2,0.6c0.1,0.2,0.3,0.2,0.4,0.2
		c0.4-0.1,0.5-0.5,0.4-0.9c0-0.4-0.2-0.5-0.4-0.7c-0.3-0.1-0.4,0-0.6,0l-0.2,0L22.2,71.2L22.2,71.2z M22.1,70.1L22.1,70.1
		c0.3-0.1,0.4-0.1,0.5-0.2c0.2-0.2,0.2-0.4,0.2-0.7c-0.1-0.4-0.3-0.6-0.6-0.6c-0.1,0.1-0.3,0.1-0.3,0.1s0,0.2,0,0.3L22.1,70.1
		L22.1,70.1z M19.3,71.6c0,0.2,0.1,0.5,0.2,0.7c0.1,0.2,0.3,0.2,0.5,0.1c0.4,0,0.6-0.4,0.5-0.9c-0.1-0.3-0.2-0.5-0.5-0.6
		c-0.2-0.1-0.4-0.1-0.7,0l-0.1,0L19.3,71.6L19.3,71.6z M19.1,70.6l0.2-0.1c0.2,0,0.4,0,0.4-0.2c0.2-0.2,0.2-0.4,0.2-0.6
		c-0.1-0.4-0.3-0.7-0.7-0.6c0,0-0.2,0-0.3,0.1l0,0.2L19.1,70.6L19.1,70.6z M32.7,69.1c0,0.3-0.2,0.7-0.1,0.9c0,0.3,0.3,0.2,0.5,0.2
		l0,0.2c-0.2,0-0.4,0-0.5,0c-0.2,0.1-0.4,0.1-0.5,0.1l0-0.1c0.3-0.1,0.3-0.2,0.4-0.5c0.1-0.4,0.1-0.8,0.1-1.2l0.4-2.4l0.2,0l1.4,2.7
		c0.1,0.2,0.3,0.4,0.4,0.6c0.1,0.1,0.3,0.1,0.4,0.1l0,0.2c-0.2,0-0.4,0-0.6,0.1c-0.3,0-0.5,0.1-0.7,0.1l0-0.1
		c0.1-0.1,0.4-0.1,0.3-0.4c0-0.1-0.1-0.3-0.1-0.4l-0.4-0.6l-1.2,0.2L32.7,69.1L32.7,69.1z M31,66.8L31,66.8l0.3,1.1l-0.1,0
		c-0.2-0.6-0.7-1-1.2-0.9c-0.9,0.1-1,1.2-0.8,2.1c0.2,0.9,0.6,1.8,1.5,1.6c0.6-0.2,0.8-0.7,0.8-1.4l0.1-0.1l0.2,1.3l-0.2-0.3
		c-0.3,0.4-0.6,0.5-1,0.6c-1,0.2-1.8-0.5-2-1.6C28.5,68,29,67,29.9,66.9c0.4-0.1,0.7,0,1.1,0.1L31,66.8L31,66.8z M27.4,68.5
		c0-0.2-0.1-0.5-0.1-0.7c-0.2-0.2-0.4-0.2-0.5-0.2l-0.1-0.1c0.3-0.1,0.5-0.1,0.7-0.1c0.3,0,0.5-0.1,0.7-0.1l0,0.1
		c-0.1,0-0.3,0.1-0.4,0.3c0,0.2,0,0.5,0.1,0.7l0.2,1.7c0,0.2,0.1,0.6,0.2,0.7c0.1,0.2,0.3,0.2,0.5,0.2l0,0.2c-0.3,0-0.4,0-0.7,0
		c-0.2,0.1-0.4,0.1-0.7,0.1l0-0.1c0.2,0,0.4,0,0.3-0.3c0.1-0.2,0-0.5,0-0.7L27.4,68.5L27.4,68.5z M24.3,69.1c0-0.2-0.1-0.6-0.1-0.8
		c-0.1-0.2-0.4-0.2-0.4-0.1L23.6,68c0.3,0,0.5,0,0.7-0.1c0.3,0,0.5,0,0.7-0.1l0.1,0.2c-0.2,0-0.4,0-0.4,0.2c0,0.2,0.1,0.6,0.1,0.8
		l0.2,1.7c0.1,0.7,0.3,0.9,0.9,0.8c0.2-0.1,0.4-0.1,0.6-0.3c0.2-0.2,0.2-0.4,0.2-0.7l0.2-0.1l0.1,1.1c-0.1,0-0.2,0-0.3,0
		c-0.8,0.1-1.7,0.3-2.5,0.4l0-0.1c0.2-0.1,0.4-0.1,0.3-0.3c0.1-0.2,0-0.6,0-0.8L24.3,69.1L24.3,69.1z M21.4,69.6
		c0-0.2-0.1-0.6-0.2-0.7c-0.1-0.2-0.3-0.2-0.5-0.2l0-0.1c0.3-0.1,0.4-0.1,0.7-0.1c0.2,0,0.3-0.1,0.5-0.1c0.5-0.1,1.2,0,1.3,0.7
		c0.1,0.5-0.2,0.8-0.6,1c0.3,0,0.5,0,0.7,0.2c0.3,0.2,0.5,0.4,0.6,0.7c0,0.4-0.2,0.7-0.3,0.9c-0.3,0.3-0.6,0.3-0.9,0.3
		c-0.1,0.1-0.4,0.1-0.5,0.1c-0.3,0-0.5,0.1-0.8,0.2l0-0.2c0.1,0,0.4,0,0.3-0.3c0-0.2-0.1-0.5-0.1-0.7L21.4,69.6L21.4,69.6z
		 M18.4,70.1c0-0.2-0.1-0.6-0.1-0.8c-0.1-0.2-0.3-0.2-0.4-0.1l0-0.2c0.2,0,0.4,0,0.6-0.1c0.3,0,0.4,0,0.6-0.1c0.4-0.1,1.2,0,1.3,0.8
		c0.1,0.5-0.2,0.8-0.5,1c0.3,0,0.5,0,0.7,0.1c0.3,0.2,0.5,0.4,0.5,0.8c0.1,0.4-0.1,0.6-0.3,0.9c-0.2,0.2-0.5,0.3-0.8,0.3
		c-0.3,0-0.4,0-0.6,0.1c-0.4,0-0.5,0.1-0.9,0.1l0-0.1c0.2-0.1,0.4-0.1,0.4-0.3c0-0.2-0.1-0.6-0.1-0.8L18.4,70.1L18.4,70.1z
		 M48.6,70.6L48.3,69l-0.7,1.5L48.6,70.6L48.6,70.6z M54.7,70.2c0-0.2-0.1-0.6-0.1-0.7c-0.1-0.3-0.3-0.2-0.4-0.2v-0.2
		c0.2,0,0.4,0,0.7,0c0.2,0,0.5-0.1,0.7-0.1v0.2c-0.2,0-0.4,0-0.4,0.2c0,0.2,0,0.6,0,0.8l0.2,1.6c0,0.2,0,0.6,0.1,0.8
		c0.1,0.2,0.3,0.2,0.4,0.2v0.1c-0.3,0-0.4,0-0.7,0C54.8,73,54.7,73,54.4,73v-0.1c0.1,0,0.4,0,0.4-0.3c0.1-0.2,0-0.5,0-0.7L54.7,70.2
		L54.7,70.2z M51.1,69.8c0-0.2,0.1-0.6,0.1-0.8c-0.1-0.2-0.3-0.3-0.5-0.3l0.1-0.1c0.2,0,0.4,0.1,0.6,0.1c0.3,0.1,0.5,0.1,0.8,0.1
		L52.2,69c-0.1,0-0.4-0.1-0.5,0.1c-0.1,0.2-0.1,0.6-0.2,0.8l-0.3,1.7c-0.1,0.7,0,0.9,0.5,1c0.3,0,0.5,0.1,0.7,0
		c0.4-0.2,0.4-0.4,0.5-0.7h0.2L52.9,73c0-0.1-0.2-0.1-0.2-0.1c-0.9-0.2-1.7-0.3-2.6-0.5v-0.1c0.2,0,0.4,0,0.5-0.2
		c0-0.1,0.1-0.5,0.2-0.7L51.1,69.8L51.1,69.8z M47.3,70.8c-0.1,0.2-0.3,0.6-0.4,0.8c0,0.3,0.3,0.3,0.4,0.4V72
		c-0.2,0-0.4-0.1-0.5-0.1c-0.2,0-0.4-0.1-0.5-0.1l0.1-0.1c0.3,0,0.4-0.1,0.5-0.4c0.2-0.4,0.4-0.7,0.5-1.1l1.1-2.2l0.2,0.1l0.5,3.1
		c0.1,0.2,0.1,0.5,0.2,0.7c0.1,0.2,0.2,0.2,0.4,0.3v0.1c-0.2,0-0.4-0.1-0.7-0.1c-0.2-0.1-0.4-0.1-0.7-0.1l0.1-0.2
		c0.1,0,0.4,0.1,0.4-0.1c0-0.2,0-0.4,0-0.5l-0.1-0.6l-1.3-0.2L47.3,70.8L47.3,70.8z M47,68.9L47,68.9c0-0.6-0.2-0.8-0.6-0.9
		c-0.3,0-0.5-0.1-0.5,0.1l-0.4,2.8c0,0.5,0,0.5,0.4,0.7v0.1c-0.3,0-0.5-0.1-0.8-0.2c-0.3,0-0.5,0-0.8-0.1v-0.1
		c0.5,0,0.6-0.1,0.7-0.5l0.4-2.8c0.1-0.1-0.2-0.2-0.4-0.2c-0.5-0.1-0.7-0.1-0.8,0.6l-0.2-0.1l0.2-0.9l3.1,0.5L47,68.9L47,68.9z
		 M42.4,68.3c0-0.2,0.1-0.5,0-0.7c0-0.2-0.2-0.3-0.4-0.3v-0.2c0.3,0.1,0.5,0.2,0.7,0.2c0.3,0,0.5,0.1,0.8,0.1l-0.1,0.1
		c-0.1,0-0.4,0-0.4,0.2c-0.1,0.2-0.1,0.5-0.2,0.7l-0.2,1.7c-0.1,0.2-0.1,0.6-0.1,0.7c0,0.3,0.2,0.3,0.4,0.3v0.2
		c-0.3-0.1-0.5-0.1-0.7-0.2c-0.3,0-0.4,0-0.7-0.1v-0.1c0.2,0,0.4,0,0.4-0.2c0.1-0.1,0.2-0.5,0.2-0.7L42.4,68.3L42.4,68.3z
		 M64.2,65.6l-1.3-0.9l0.5,1.5L64.2,65.6L64.2,65.6z M58.1,70l-1.2-1.1l0.3,1.5L58.1,70L58.1,70z M63.5,66.6c0,0.3,0.2,0.7,0.3,0.9
		c0.2,0.2,0.4,0,0.4-0.1l0.1,0.2c-0.1,0.1-0.3,0.2-0.4,0.3c-0.1,0.1-0.3,0.2-0.4,0.4L63.4,68c0.2-0.2,0.2-0.3,0.2-0.5
		c-0.2-0.5-0.3-0.8-0.4-1.2L62.5,64l0.1-0.1l2.6,1.8c0.1,0.1,0.4,0.4,0.5,0.4c0.2,0.1,0.4,0,0.5-0.1v0.2c-0.2,0.1-0.4,0.2-0.5,0.4
		c-0.2,0.2-0.4,0.3-0.5,0.5l-0.1-0.1c0.1-0.1,0.3-0.3,0.2-0.5c-0.1-0.1-0.3-0.2-0.4-0.3l-0.5-0.4L63.5,66.6L63.5,66.6L63.5,66.6z
		 M59,67.2c-0.3-0.1-0.5-0.1-0.6,0.1l-0.1-0.2c0.2-0.1,0.3-0.1,0.4-0.3c0.1,0,0.3-0.1,0.4-0.2l3.5,1.2l-1-1.4
		c-0.2-0.2-0.4-0.5-0.5-0.7c-0.3-0.2-0.4-0.1-0.6,0l-0.1-0.1c0.2-0.1,0.4-0.2,0.5-0.3c0.1-0.2,0.2-0.3,0.4-0.4l0.1,0.1
		c-0.1,0.2-0.3,0.2-0.2,0.5c0.1,0.2,0.4,0.6,0.6,0.9l1.4,2L63,68.6c-0.2,0-0.4-0.1-0.5-0.2l-3.2-1.1l1.2,1.6
		c0.1,0.2,0.4,0.5,0.5,0.6c0.2,0.1,0.4,0,0.5-0.1v0.1c-0.1,0.2-0.3,0.3-0.4,0.4c-0.2,0.1-0.3,0.2-0.5,0.4l-0.1-0.1
		c0.2-0.2,0.3-0.3,0.2-0.5c-0.1-0.2-0.3-0.5-0.5-0.6L59,67.2L59,67.2z M57.3,70.9c0,0.2,0.1,0.6,0.2,0.9c0.1,0.2,0.4,0.1,0.4,0
		l0.1,0.1c-0.2,0.1-0.3,0.2-0.4,0.3c-0.2,0.1-0.4,0.2-0.5,0.3L57,72.3c0.2-0.2,0.3-0.3,0.2-0.6c0-0.4-0.1-0.8-0.2-1.2l-0.5-2.4h0.2
		l2.3,2.1c0.1,0.1,0.4,0.4,0.5,0.5c0.2,0.1,0.4,0,0.5,0l0.1,0.1c-0.2,0.1-0.5,0.2-0.6,0.4c-0.2,0.1-0.5,0.2-0.6,0.4l-0.1-0.2
		c0.2,0,0.4-0.2,0.3-0.4c-0.1-0.1-0.2-0.3-0.4-0.4l-0.4-0.4l-1.1,0.5L57.3,70.9L57.3,70.9z"/>
	<g>
		<path fill="#FFFFFF" d="M11.4,45.2c-0.2-0.7-0.5-1.6-0.6-1.9l-0.1-0.2l2.1-1.2c-0.2-1.1-0.4-2-0.5-2.9L10,38.6l0-0.2
			c0-0.5,0-2.5,0-3l0-0.2l2.3-0.5c0.1-0.9,0.2-1.9,0.4-2.9l-1.1-0.6l0.8-0.1l0.9,0.5l0,0.2c-0.2,1.1-0.4,2.2-0.5,3.2l0,0.2l-2.3,0.5
			c0,0.6,0,2,0,2.7l2.3,0.5l0,0.2c0.1,1,0.2,2,0.5,3.2l0,0.2l-2,1.2c0.1,0.3,0.3,0.8,0.4,1.3L11.4,45.2z M15.5,51.9
			c0.2,0.3,0.4,0.5,0.5,0.7l2.1-1l0.1,0.1c0.7,0.7,1.4,1.5,2.3,2.3l0.1,0.1l-1,2.2c0.5,0.4,1.6,1.2,2.1,1.5l1.7-1.6l0.1,0.1
			c0.9,0.6,1.9,1,2.9,1.5l0.2,0.1l-0.3,2.3c0.6,0.2,1.9,0.6,2.5,0.8l1.1-2l0.2,0c1.1,0.2,2.2,0.4,3.2,0.5l0.2,0l0.5,2.3
			c0.3,0,0.8,0,1.3,0c0.5,0,1,0,1.3,0l0.5-2.3l0.2,0c1.2-0.1,2.2-0.3,3.2-0.5l0.2,0l1.2,2c0.6-0.2,2-0.6,2.5-0.8l-0.3-2.3l0.2-0.1
			c1-0.4,2-0.9,2.9-1.5l0.1-0.1l1.7,1.6c0.5-0.3,1.6-1.2,2.1-1.5l-1-2.1l0.1-0.1c0.9-0.8,1.6-1.5,2.3-2.3l0.1-0.1l2.2,1
			c0.4-0.5,1.2-1.6,1.5-2.1l-1.6-1.7l0.1-0.1c0.5-0.9,1-1.9,1.5-2.9l0.1-0.2l2.3,0.2c0.2-0.6,0.7-1.9,0.8-2.5l-2-1.2l0-0.2
			c0.2-1.1,0.4-2.2,0.5-3.2l0-0.2l2.3-0.5c0-0.6,0-2,0-2.6l-2.3-0.5l0-0.2c-0.1-1.1-0.3-2.2-0.5-3.2l0-0.2l2.1-1.2
			c-0.2-0.6-0.6-2-0.8-2.5l-2.3,0.3L56.4,28c-0.4-1-0.9-1.9-1.5-2.9L54.9,25l1.6-1.7c-0.3-0.5-1.2-1.7-1.6-2.2l-2.1,1L52.7,22
			c-0.7-0.8-1.5-1.6-2.3-2.3l-0.1-0.1l1-2.1c-0.5-0.4-1.6-1.2-2.2-1.6l-1.7,1.6l-0.1-0.1c-0.9-0.6-1.9-1-2.9-1.5l-0.2-0.1l0.3-2.3
			c-0.6-0.2-1.9-0.7-2.5-0.8l-1.1,2l-0.2,0c-1.1-0.3-2.1-0.4-3.2-0.5l-0.2,0l-0.5-2.3c-0.3,0-0.8,0-1.3,0c-0.6,0-1,0-1.3,0l-0.5,2.3
			l-0.2,0c-1.1,0.1-2.2,0.3-3.2,0.5l-0.2,0L29,12.7c-0.6,0.2-1.9,0.6-2.5,0.8l0.3,2.3l-0.2,0.1c-1,0.4-1.9,0.9-2.9,1.5l-0.1,0.1
			l-1.7-1.6c-0.2,0.2-0.6,0.5-1,0.7l0.1-0.6c0.4-0.3,0.7-0.5,0.9-0.6l0.1-0.1l1.8,1.6c0.9-0.5,1.7-1,2.6-1.3L26,13.2l0.2-0.1
			c0.5-0.2,2.4-0.8,2.9-0.9l0.2,0l1.2,2.1c0.9-0.2,1.9-0.4,2.9-0.5l0.5-2.3l0.2,0h0l0,0l0,0l0,0h0l0,0l0,0l0,0l0,0h0l0,0h0v0l0.2,0
			c0,0,0,0,0,0l0,0v0c0,0,0,0,0,0h0.2c0.3,0,0.8,0,1.1,0c0.6,0,1.3,0,1.5,0l0.2,0l0.5,2.3c1,0.1,1.9,0.2,2.9,0.5l1.2-2.1l0.2,0
			c0.5,0.1,2.5,0.8,2.9,1l0.2,0.1l-0.3,2.3c0.9,0.4,1.8,0.8,2.6,1.3l1.7-1.6l0.1,0.1c0.5,0.3,2.1,1.5,2.5,1.8l0.1,0.1l-1,2.1
			c0.7,0.7,1.4,1.3,2.1,2.1l2.1-1l0.1,0.1c0.3,0.4,1.5,2,1.8,2.5l0.1,0.1l-1.6,1.7c0.5,0.9,1,1.7,1.3,2.6l2.4-0.3l0.1,0.2
			c0.2,0.5,0.8,2.4,0.9,2.9l0,0.2l-2.1,1.2c0.2,0.9,0.4,1.9,0.5,2.9l2.3,0.5l0,0.2c0,0.5,0,2.6,0,3.1l0,0.2l-2.3,0.5
			c-0.1,0.9-0.2,1.9-0.5,2.9l2,1.2l0,0.2c-0.1,0.5-0.8,2.5-0.9,2.9l-0.1,0.2l-2.4-0.2c-0.4,0.9-0.8,1.8-1.3,2.6l1.6,1.7L57,50.6
			c-0.3,0.4-1.5,2.1-1.8,2.5l-0.1,0.1l-2.2-1c-0.6,0.7-1.3,1.4-2.1,2.1l1,2.2l-0.1,0.1c-0.4,0.3-2,1.5-2.5,1.8l-0.1,0.1l-1.8-1.6
			c-0.8,0.5-1.7,0.9-2.6,1.3l0.3,2.3l-0.2,0.1c-0.5,0.2-2.4,0.8-2.9,0.9l-0.2,0.1l-1.2-2.1c-0.9,0.2-1.9,0.4-2.9,0.5l-0.5,2.3
			l-0.2,0c-0.3,0-1,0-1.5,0c-0.6,0-1.2,0-1.5,0l-0.2,0L33.3,60c-0.9-0.1-1.9-0.2-2.9-0.5l-1.2,2.1l-0.2-0.1
			c-0.5-0.1-2.4-0.8-2.9-0.9L26,60.6l0.3-2.4c-0.9-0.4-1.8-0.8-2.6-1.3l-1.7,1.6l-0.1-0.1c-0.4-0.3-2.1-1.5-2.5-1.8l-0.1-0.1l1-2.2
			c-0.8-0.7-1.5-1.4-2.1-2.1l-2.2,1l-0.1-0.1c-0.1-0.1-0.3-0.4-0.6-0.8L15.5,51.9z"/>
		<path fill="#FFFFFF" d="M35.4,55.6c-2.7,0-5.4-0.6-7.8-1.7l-0.3-0.2l8.2-10.3l8,10.4L43.1,54C40.7,55.1,38.1,55.6,35.4,55.6z
			 M28.2,53.5c2.3,1,4.7,1.5,7.3,1.5c2.4,0,4.9-0.5,7.1-1.4l-7.1-9.2L28.2,53.5z M49,49.9l-7.3-11l12.4-4.4l0,0.4
			c0.6,5.4-1.2,10.8-4.9,14.7L49,49.9z M42.6,39.2L49,49c3.3-3.7,5-8.7,4.5-13.7L42.6,39.2z M21.8,49.7l-0.2-0.3
			c-3.6-4-5.3-9.4-4.7-14.8l0-0.4l12.3,4.6L21.8,49.7z M17.4,35.1c-0.5,5,1.1,9.9,4.4,13.7l6.6-9.6L17.4,35.1z M39.3,31.6L39,18.5
			l0.4,0.1c5.3,1.1,9.9,4.5,12.5,9.2l0.2,0.3L39.3,31.6z M39.6,19.2l0.3,11.7l11.3-3.1C48.6,23.4,44.4,20.3,39.6,19.2z M31.6,31.6
			L19,27.9l0.2-0.3c2.7-4.7,7.3-8,12.6-9l0.4-0.1L31.6,31.6z M19.9,27.5l11.2,3.3l0.5-11.7C26.7,20.2,22.5,23.2,19.9,27.5z"/>
		<path fill="#FFFFFF" d="M35.5,19.8l-4,11.3l-0.1,0.2l-0.2,0l-12,0.3l9.5,7.3l0.1,0.1l-0.1,0.2l-3.4,11.5l9.8-6.8l0.2-0.1l0.2,0.1
			l9.9,6.8l-3.4-11.5L42,39l0.1-0.1l9.5-7.3l-12-0.3l-0.2,0l-0.1-0.2L35.5,19.8L35.5,19.8z M31.1,30.8l4.2-11.8l0.3-0.7l0.3,0.7
			l4.2,11.9l12.5,0.3l0.8,0l-0.6,0.5l-10,7.6l3.6,12l0.2,0.7l-0.6-0.4l-10.3-7.1l-10.3,7.1L24.5,52l0.2-0.7l3.6-12.1l-10-7.6
			l-0.6-0.5l0.8,0L31.1,30.8L31.1,30.8z"/>
		<g>
			<polygon fill="#FFFFFF" points="13.4,56 13.4,56 13.4,56 			"/>
			<polygon fill="#FFFFFF" points="12.3,53.8 13.4,56 13.4,56 			"/>
		</g>
	</g>
</g>
<line fill="none" stroke="#FFFFFF" stroke-width="2" stroke-miterlimit="10" x1="157" y1="4.3" x2="157" y2="78.7"/>
</svg>
